<svg width="20" height="20" viewBox="0 0 20 20" fill="none" xmlns="http://www.w3.org/2000/svg">
<g id="vuesax/bold/message">
<g id="message">
<path id="Vector" d="M14.1665 1.6665H5.83317C3.53317 1.6665 1.6665 3.52484 1.6665 5.8165V10.7998V11.6332C1.6665 13.9248 3.53317 15.7832 5.83317 15.7832H7.08317C7.30817 15.7832 7.60817 15.9332 7.74984 16.1165L8.99984 17.7748C9.54984 18.5082 10.4498 18.5082 10.9998 17.7748L12.2498 16.1165C12.4082 15.9082 12.6582 15.7832 12.9165 15.7832H14.1665C16.4665 15.7832 18.3332 13.9248 18.3332 11.6332V5.8165C18.3332 3.52484 16.4665 1.6665 14.1665 1.6665ZM6.6665 9.99984C6.19984 9.99984 5.83317 9.62484 5.83317 9.1665C5.83317 8.70817 6.20817 8.33317 6.6665 8.33317C7.12484 8.33317 7.49984 8.70817 7.49984 9.1665C7.49984 9.62484 7.13317 9.99984 6.6665 9.99984ZM9.99984 9.99984C9.53317 9.99984 9.1665 9.62484 9.1665 9.1665C9.1665 8.70817 9.5415 8.33317 9.99984 8.33317C10.4582 8.33317 10.8332 8.70817 10.8332 9.1665C10.8332 9.62484 10.4665 9.99984 9.99984 9.99984ZM13.3332 9.99984C12.8665 9.99984 12.4998 9.62484 12.4998 9.1665C12.4998 8.70817 12.8748 8.33317 13.3332 8.33317C13.7915 8.33317 14.1665 8.70817 14.1665 9.1665C14.1665 9.62484 13.7998 9.99984 13.3332 9.99984Z" fill="white"/>
</g>
</g>
</svg>
