<svg width="48" height="48" viewBox="0 0 48 48" fill="none" xmlns="http://www.w3.org/2000/svg">
<g id="whatsapp">
<rect id="fon" width="48" height="48" rx="24" fill="none"/>
<g id="Group">
<path id="Vector" d="M15 33L16.2722 28.3802C15.4857 27.0242 15.0731 25.4886 15.0774 23.9187C15.0774 18.9995 19.1003 15 24.0387 15C26.437 15 28.6891 15.9282 30.3782 17.6136C32.0716 19.299 33.0043 21.5404 33 23.923C33 28.8422 28.9771 32.8417 24.0344 32.8417H24.0301C22.5301 32.8417 21.0559 32.4653 19.745 31.7552L15 33ZM19.9728 30.1426L20.2435 30.3051C21.3868 30.981 22.6977 31.336 24.0344 31.3403H24.0387C28.1433 31.3403 31.4871 28.0166 31.4871 23.9273C31.4871 21.9468 30.7135 20.086 29.308 18.683C27.9026 17.2799 26.0286 16.51 24.0387 16.51C19.9341 16.5057 16.5903 19.8294 16.5903 23.9187C16.5903 25.3175 16.9814 26.682 17.7292 27.8626L17.9054 28.145L17.1533 30.8783L19.9728 30.1426Z" fill="white"/>
<path id="Vector_2" d="M15 33L16.2722 28.3802C15.4857 27.0242 15.0731 25.4886 15.0774 23.9187C15.0774 18.9995 19.1003 15 24.0387 15C26.437 15 28.6891 15.9282 30.3782 17.6136C32.0716 19.299 33.0043 21.5404 33 23.923C33 28.8422 28.9771 32.8417 24.0344 32.8417H24.0301C22.5301 32.8417 21.0559 32.4653 19.745 31.7552L15 33ZM19.9728 30.1426L20.2435 30.3051C21.3868 30.981 22.6977 31.336 24.0344 31.3403H24.0387C28.1433 31.3403 31.4871 28.0166 31.4871 23.9273C31.4871 21.9468 30.7135 20.086 29.308 18.683C27.9026 17.2799 26.0286 16.51 24.0387 16.51C19.9341 16.5057 16.5903 19.8294 16.5903 23.9187C16.5903 25.3175 16.9814 26.682 17.7292 27.8626L17.9054 28.145L17.1533 30.8783L19.9728 30.1426Z" fill="white"/>
<path id="Vector_3" fill-rule="evenodd" clip-rule="evenodd" d="M21.7991 20.1886C21.6315 19.8164 21.4553 19.8079 21.2963 19.8036C21.1673 19.7993 21.0169 19.7993 20.8665 19.7993C20.716 19.7993 20.4754 19.8549 20.2691 20.0774C20.0627 20.2998 19.4868 20.8388 19.4868 21.9381C19.4868 23.0332 20.2905 24.094 20.4023 24.2437C20.514 24.3934 21.9539 26.7161 24.2275 27.6102C26.1186 28.3545 26.5054 28.2047 26.9137 28.1662C27.3221 28.1277 28.2375 27.6273 28.4266 27.1054C28.6115 26.5835 28.6115 26.1387 28.5556 26.0446C28.4997 25.9505 28.3493 25.8949 28.1258 25.7836C27.9023 25.6724 26.802 25.1334 26.5957 25.0564C26.3894 24.9837 26.239 24.9452 26.0928 25.1677C25.9424 25.3901 25.5126 25.8906 25.3837 26.0403C25.2547 26.19 25.1215 26.2071 24.898 26.0959C24.6745 25.9847 23.9524 25.7494 23.0971 24.988C22.4309 24.3977 21.9797 23.6662 21.8507 23.4438C21.7218 23.2214 21.8378 23.1016 21.9496 22.9904C22.0484 22.892 22.1731 22.7294 22.2848 22.6011C22.3966 22.4728 22.4352 22.3787 22.5083 22.229C22.5814 22.0793 22.547 21.9509 22.4911 21.8397C22.4352 21.7328 21.9968 20.6292 21.7991 20.1886Z" fill="white"/>
</g>
</g>
</svg>
