<svg width="36" height="32" viewBox="0 0 36 32" fill="none" xmlns="http://www.w3.org/2000/svg">
<path fill-rule="evenodd" clip-rule="evenodd" d="M9.55432 12.5311L6.26172 7.17529H9.20492L11.1247 10.2753H26.4712L22.1785 18.3088H13.0986L9.55432 12.5311ZM12.75 12.8586L14.6427 15.7255H20.5304L22.1564 12.8586H12.75Z" fill="white"/>
<path d="M16.5544 22.313C16.5544 23.3831 15.659 24.2505 14.5544 24.2505C13.4498 24.2505 12.5544 23.3831 12.5544 22.313C12.5544 21.243 13.4498 20.3755 14.5544 20.3755C15.659 20.3755 16.5544 21.243 16.5544 22.313Z" fill="white"/>
<path d="M19.8877 24.2505C20.9923 24.2505 21.8877 23.3831 21.8877 22.313C21.8877 21.243 20.9923 20.3755 19.8877 20.3755C18.7832 20.3755 17.8877 21.243 17.8877 22.313C17.8877 23.3831 18.7832 24.2505 19.8877 24.2505Z" fill="white"/>
<ellipse cx="32.4048" cy="3.10645" rx="3" ry="2.90625" fill="#FF3E41"/>
</svg>
